<svg xmlns="http://www.w3.org/2000/svg" viewBox="0 0 817.09 750.55"><defs><style>.cls-1{fill:#fdfdff;}.cls-2{fill:#fafcff;}.cls-3{fill:#fff;}</style></defs><g id="Layer_2" data-name="Layer 2"><g id="Layer_1-2" data-name="Layer 1"><path class="cls-1" d="M756.94,231.18c.13,13-.85,25.94-1.67,38.89-.32,5.18-.45,5.24-5.19,3.76a439.61,439.61,0,0,0-82.61-17.18c-18-2-36.08-2.73-54.17-3-2.81,0-4.06-.82-5-3.59-14-40.6-32-79.32-55.14-115.54a93.94,93.94,0,0,0-5.56-8c-1.63-2-1.43-2.9,1-3.94a454.93,454.93,0,0,1,55.82-19.29A404,404,0,0,1,713.86,88.7c5,0,10,.51,15,.52,2.32,0,3.22,1,4,3A383.37,383.37,0,0,1,752.53,170,448.57,448.57,0,0,1,756.94,231.18Z"/><path class="cls-1" d="M142.19,186.72a358.93,358.93,0,0,1,41.46,2c2.23.24,2.69.74,2,2.9a402,402,0,0,0-16,69.48q-3.17,22-4.19,44.28c-.39,8.61-.52,17.21-.5,25.81,0,2.16-.78,3-2.73,3.67A551.26,551.26,0,0,0,55.13,384.47a185.74,185.74,0,0,0-16.82,11.17c-3.24,2.47-4,1.05-5.1-1.7A450.54,450.54,0,0,1,9,317,417.24,417.24,0,0,1,.57,256.35C-.32,243,.11,229.65.08,216.3c0-3.18,1.22-4.82,4.28-5.94a382.14,382.14,0,0,1,87.45-20.74A392.79,392.79,0,0,1,142.19,186.72Z"/><path class="cls-2" d="M233.64,154.93a442.72,442.72,0,0,1,38-74.21,392.14,392.14,0,0,1,66.17-79c2.27-2.07,3.93-2.13,6.5-.94C381,17.7,414,40.15,443.83,67.32a466.45,466.45,0,0,1,42.4,44.37c2,2.44,1.43,3.21-1,4.46-41.91,21.53-78.79,49.86-112,83.06-1.85,1.84-3.19,2.23-5.66,1a554.12,554.12,0,0,0-115.9-41.81C245.82,157.05,239.9,156.13,233.64,154.93Z"/><path class="cls-1" d="M479.29,273.52c-1.12.08-1.71-.84-2.4-1.51a424.37,424.37,0,0,0-69.48-54.26c-2.62-1.65-.87-2.45.24-3.48,10.81-10,22.18-19.34,33.9-28.26,21.35-16.27,43.32-31.59,67-44.36,3.12-1.68,4.8-1.63,7,1.38,15.5,20.85,27.27,43.78,38.09,67.26,6.27,13.59,11.87,27.46,17.06,41.5,1,2.74.88,3.68-2.49,4a420.16,420.16,0,0,0-86,16.85Z"/><path class="cls-1" d="M184.39,463.91c.05,1.73-1.12,2.43-1.95,3.31A451.73,451.73,0,0,0,133.39,529c-1.37,2.08-2.85,4.12-4,6.31-1.36,2.56-2.47,2.37-4.31.38a460.77,460.77,0,0,1-29.58-35.72c-15.94-21.14-31-42.82-43.43-66.28-1.21-2.29-.93-3.36,1.06-4.86,18.72-14.14,39.24-25.18,60.33-35.22,15.88-7.57,32.07-14.42,48.63-20.37,4.43-1.6,4.55-1.55,4.93,3.14.93,11.56,2.54,23,4.54,34.45A429.22,429.22,0,0,0,183.82,462C184,462.73,184.25,463.44,184.39,463.91Z"/><path class="cls-2" d="M200,311.36c1.33-20.06,3.71-40.24,7.06-60.3,3.18-19.08,7-38,12.66-56.53,1.56-5.12,1.54-5.06,6.52-4.36,27.86,3.9,54.29,12.85,80.43,22.8,11.78,4.48,23.33,9.49,34.77,14.78,2.8,1.3,3.56,2.05,1.23,4.82a411.84,411.84,0,0,0-48.79,72.55c-1.53,2.91-3.46,3.48-6.2,3.51a388,388,0,0,0-42.54,3.08c-13.63,1.65-27.13,4-40.54,6.94-4.67,1-4.68,1-4.61-3.67C200,313.86,200,312.74,200,311.36Z"/><path class="cls-1" d="M294.25,417.71A121.6,121.6,0,0,1,298,395.35c13.4-54.49,39.79-102.22,75.58-145,6.08-7.29,6.16-7.31,14.13-2.33a419.19,419.19,0,0,1,50.45,36.82c2.84,2.43,2.17,3.13-.75,4.42a325.27,325.27,0,0,0-72.19,43.62c-28.87,23.16-52.62,50.63-70.09,83.38C294.87,416.73,294.55,417.21,294.25,417.71Z"/><path class="cls-1" d="M328.39,649.27c-10.41-.75-20.34-3.1-30.19-5.78-33.13-9-63.95-23.16-93-41.39a433.72,433.72,0,0,1-48.71-36c-2-1.64-2-2.85-.75-5a434.76,434.76,0,0,1,40-55.52c2.69-3.17,2.76-3.16,4.45.6,17.1,38.09,39.91,72.22,70.22,101.12a261.75,261.75,0,0,0,55.13,40.32C326.51,648.17,327.44,648.73,328.39,649.27Z"/><path class="cls-2" d="M261.56,538.93c-13.16-18-23.64-37.53-32.33-58a370.16,370.16,0,0,1-27.72-112.85c0-.12,0-.25,0-.37-.39-3.57-2.32-8.09-.18-10.45s6.62-2.27,10.12-3.08a443.31,443.31,0,0,1,59.08-9.21c1.36-.13,2.73,0,4.54,0-2,5.62-4,11-5.82,16.5C257.53,396,251.3,431.44,252,468a260.76,260.76,0,0,0,9.74,66.45c.27.95.43,1.94.64,2.91S263,539,261.56,538.93Z"/><path class="cls-3" d="M505,613.49c3.42-7.38,6.67-14.35,9.89-21.33q7.9-17.14,15.79-34.31a8.55,8.55,0,0,1,1.14-1.91c.36-.44,12.85-.49,13.37-.17,1,.58.67,1.53.67,2.35q0,44.21.05,88.4c0,1.88-.47,2.69-2.51,2.58-3.73-.21-8.47,1.16-10.91-.65s-.71-6.78-.73-10.36c-.09-15.23,0-30.46,0-45.69v-4l-.71-.19q-5,10.51-10,21c-3.2,6.76-6.47,13.49-9.55,20.3-.82,1.83-1.79,2.35-3.81,2.66-6,.91-9-1.32-11.45-6.91-5.12-11.9-11.09-23.43-16.73-35.1-.31-.65-.72-1.26-1.14-2-1.18,1-.63,2.21-.63,3.2,0,18.11-.1,36.21,0,54.31,0,2.86-.75,3.75-3.54,3.45a31.8,31.8,0,0,0-7.1,0c-3.16.38-3.64-1-3.63-3.79q.14-43.08,0-86.15c0-3.08,1.1-3.28,3.78-3.71,8.07-1.31,12,1.91,15.06,9.45,6.3,15.31,13.88,30.1,20.94,45.1C503.63,611,504.17,612,505,613.49Z"/><path class="cls-1" d="M522.72,735.92q-74.72,0-149.44.08c-3.37,0-4.53-.79-4.43-4.33.22-8.42,0-8.42,8.41-8.42q147.38,0,294.76-.08c3.72,0,4.91.77,4.75,4.66-.34,8.08-.1,8.09-8.35,8.09Z"/><path class="cls-3" d="M383,583.59c0,18.92,0,36.75,0,54.58,0,3.47,1.14,8.09-.61,10.12-2.06,2.36-6.81.4-10.37.8-2.39.26-3.2-.5-3.19-3q.14-43.63,0-87.27c0-2.33.43-3.23,3-3.25,9.9,0,9.87-.12,15.28,8.13q18.06,27.52,36.19,55c.33.49.69,1,1.67,2.35v-4.8c0-19,.05-38-.07-56.93,0-2.84.57-4.13,3.65-3.73,3.42.45,8-1.5,10,.81,1.7,2,.59,6.42.59,9.77,0,26.34,0,52.69.08,79,0,3-.74,3.72-3.83,4-6.68.69-10.62-1.57-14.29-7.47-11.64-18.75-24.07-37-36.2-55.46C384.48,585.67,384,585.1,383,583.59Z"/><path class="cls-2" d="M683.46,688.57c-37,0-73.92-.05-110.88.08-3.61,0-5-.61-4.83-4.62.36-8.08.1-8.09,8.34-8.09H794.86c5.56,0,4.85-.65,4.88,4.67,0,7.94,0,8-8,8Z"/><path class="cls-3" d="M593.89,649.94c-10.94-.19-21-2.66-29.52-10-1.89-1.63-2.83-2.82-.33-4.81,2.33-1.85,4-5.06,6.55-6,2.88-1,4.59,2.9,7.18,4.13,8.72,4.16,17.7,5.13,26.93,2.36,6.67-2,10-7.07,9.64-13.84s-3.6-10.54-10.66-12c-5.49-1.16-11.1-1.7-16.63-2.66-13.72-2.36-21.57-10.6-22-22.94-.48-14.6,7-24.95,20.66-28,13.27-3,25.78-1.45,36.92,7.09,2,1.51,2.61,2.59.36,4.44s-3.82,4.73-6.28,5.76c-2.65,1.11-4.4-2.4-6.81-3.47a32.85,32.85,0,0,0-19.41-2.21,13.65,13.65,0,0,0-11.61,11.64c-1,6.48,1.71,11.24,7.85,13.62s12.93,2.6,19.43,3.72c12.58,2.16,20.61,9.67,21.83,20.73,1.91,17.12-7.42,29-24.82,31.64C600.12,649.56,597,649.67,593.89,649.94Z"/><path class="cls-3" d="M731.54,602.17c-.09-6.36-.06-12.71.46-19.07,1.46-17.93,18.25-29.86,36.06-28.15,16,1.53,25.81,10.47,29.62,25.8.52,2.09.42,3.09-2,2.83a13.59,13.59,0,0,0-3,0c-5.51.64-9.36,0-11.69-6.59-2.65-7.5-11.32-10.62-19.82-9.07-7.94,1.45-13.71,7.17-14.65,15.4a164.28,164.28,0,0,0,0,38.13c1.05,8.79,7.8,14.81,16.6,15.62s16.72-3.91,19.56-12.44c1-3.06,2.45-3.83,5.3-3.54a28.77,28.77,0,0,0,6.36,0c3.81-.51,3.91,1,3,4.13-3.84,13.79-13.73,22.59-27.71,24.3-14.23,1.75-27.72-4.63-34.15-16.12-2.95-5.29-3.65-11.11-3.94-17C731.35,611.67,731.54,606.92,731.54,602.17Z"/><path class="cls-1" d="M729.19,513.39c22.23,0,44.46.06,66.68-.08,3.19,0,4,1,3.92,4-.15,8.78,0,8.78-8.81,8.78-43,0-85.91,0-128.86.09-3.53,0-4.39-1-4.3-4.4.22-8.39.07-8.39,8.44-8.39Z"/><path class="cls-3" d="M407.69,688.57c-11.72,0-23.45-.08-35.17.06-2.77,0-3.63-.74-3.62-3.57.05-9.12-.07-9.12,9.16-9.12,21.58,0,43.15,0,64.73-.06,2.87,0,3.84.66,3.79,3.69-.14,9,0,9-9,9Z"/><path class="cls-3" d="M485.59,671.57c-3.19,8.78-6.34,17.57-9.58,26.33-.63,1.69-.39,4.1-3.42,4.08s-2.71-2.6-3.28-4.2c-3.19-9.15-6.18-18.36-9.29-27.69-1.16.56-.77,1.53-.81,2.26-.5,8.85-.93,17.7-1.47,26.55-.07,1.19.48,3-1.62,3.22s-3.74.19-3.49-3c1-11.69,1.65-23.41,2.42-35.12.09-1.31.1-2.77,1.94-2.37s4.51-1.55,5.65,1.82c3.21,9.44,6.84,18.74,9.49,28.36.19.7.43,1.38,1,3.11,2.46-9.42,5.62-17.53,8.64-25.69.52-1.41,1.06-2.79,1.6-4.19,1.22-3.18,3.55-4.31,6.74-3.47,1.39.37,1.27,1.34,1.33,2.29.75,12,1.46,23.92,2.26,35.88.12,1.83-.43,2.38-2.24,2.41s-2.88-.27-3-2.56c-.35-8.85-.93-17.7-1.42-26.55a6.54,6.54,0,0,1-.37-4.23c.1-.86-.81-.43-.31-.47.16,0,.22.05.21.2C486.51,669.68,486.51,670.77,485.59,671.57Z"/><path class="cls-3" d="M694.61,745c5.53,0,10.77,0,16,0,1.68,0,2.77.06,2.8,2.31s-1,2.61-2.92,2.59c-7.23-.08-14.47,0-21.71-.06-1,0-2.5.63-3-.76A3.63,3.63,0,0,1,686.9,745c3.39-3.14,6.72-6.34,9.92-9.66,2.25-2.33,4.27-4.88,6.35-7.36a14.45,14.45,0,0,0,1.38-2.22c2.48-4.54,2.32-9.9-.36-12.64-2.84-2.91-8.14-3.16-12.88-.43-1.78,1-3.14,2.05-4-.93-.43-1.46.14-2,1.17-2.69,4.66-2.95,9.72-4,15-2.48,8.15,2.36,11.15,11.44,6.68,20-3.25,6.18-8.41,10.78-13.29,15.6C696.13,742.87,695,743.32,694.61,745Z"/><path class="cls-3" d="M762.4,745c5.71,0,10.89,0,16.07,0,1.68,0,3.1-.19,3.1,2.38s-1.19,2.51-3,2.5c-7.23-.05-14.47,0-21.7-.06-1,0-2.46.69-2.89-.83a3.49,3.49,0,0,1,.9-3.77c2.2-2,4.31-4.15,6.47-6.23a91,91,0,0,0,9.39-10.14,20.73,20.73,0,0,0,2-3.16c2.47-4.71,2.27-9.87-.43-12.62s-8.14-2.94-12.94-.42c-1,.51-2.1,2.76-3.47.07-1.08-2.13-.32-3.16,1.46-4.15a19.12,19.12,0,0,1,13.35-2.28c7.39,1.47,11.37,8.81,9.12,16.51-1.67,5.71-5.52,10-9.49,14.13C767.87,739.44,765.35,742,762.4,745Z"/><path class="cls-3" d="M548.54,702.15c-2.87,0-5.75-.09-8.61,0-1.85.08-2.67-.34-2.65-2.44.09-12,.07-24,0-36,0-1.57.37-2.21,2.06-2.19,5.87.08,11.73.07,17.6,0,1.5,0,2.25.26,2.23,2s-.54,2.43-2.36,2.38c-3.86-.11-7.74.07-11.6-.07-2-.07-3,.38-2.79,2.64a46.7,46.7,0,0,1,0,7.48c-.21,2.48.89,2.93,3,2.82,3.11-.16,6.24-.11,9.36,0,1.41,0,3.34-.81,3.4,2s-1.69,2.21-3.23,2.22c-3.25,0-6.49.1-9.74,0-2-.07-3,.31-2.84,2.62.23,3.85-1.28,8.86.62,11.26s7.23.56,11,.81a24.57,24.57,0,0,0,3.74,0c1.66-.14,2.16.56,2.13,2.15s-.32,2.31-2.07,2.25C554.78,702.07,551.66,702.15,548.54,702.15Z"/><path class="cls-3" d="M410,522.8c0-5.62.13-11.24-.07-16.85-.09-2.55.78-3.14,3.17-3.06,5.24.17,10.48.08,15.73,0,1.59,0,2.85-.11,2.8,2.23s-1.47,2.15-3,2.14c-3.5,0-7,.11-10.49,0-2.16-.09-3,.37-3.05,2.83-.12,9.82-.22,9.82,9.52,9.82,1.37,0,2.75.07,4.12,0,1.82-.11,1.92,1,2,2.37.06,1.62-.77,1.84-2.07,1.83-3.62,0-7.25.06-10.86,0-1.84-.06-2.77.32-2.65,2.44.16,3.11.15,6.24,0,9.36-.1,2,.61,2.58,2.55,2.52,4.12-.13,8.24,0,12.36-.07,1.68,0,2.44.33,2.45,2.24s-.94,2.15-2.52,2.14c-5.74-.06-11.49-.15-17.23,0-2.5.08-2.85-.94-2.81-3.07C410.08,534,410,528.42,410,522.8Z"/><path class="cls-3" d="M574.41,522.64c0-5.74.07-11.48,0-17.22,0-2,.58-2.56,2.55-2.52,5.61.12,11.22.08,16.84,0,1.49,0,2.28.22,2.23,2s-.38,2.5-2.29,2.43c-3.86-.12-7.74.08-11.6-.08-2.21-.09-2.67.75-2.71,2.8-.22,9.84-.28,9.84,9.48,9.85,1.38,0,2.75.08,4.12,0,1.8-.13,2,.87,2,2.32s-.63,1.9-2,1.89c-3.62-.05-7.24.1-10.86-.06-2.16-.1-2.83.65-2.72,2.76.16,3,.14,6,0,9-.09,1.93.51,2.65,2.51,2.58,4.11-.13,8.23,0,12.35-.06,1.65,0,2.5.29,2.51,2.23s-1,2.16-2.55,2.15c-5.74-.05-11.49-.13-17.22,0-2.3.07-2.67-.89-2.64-2.86C574.46,534.12,574.4,528.38,574.41,522.64Z"/><path class="cls-3" d="M391.31,543.18c-12.18,0-20.06-7.38-20.31-19.21-.27-12.62,7.64-21.45,19.55-21.83a25.67,25.67,0,0,1,8.49,1c1.67.5,2.09,1.26,1.56,3s-1.32,1.84-2.72,1.28a9.89,9.89,0,0,0-1.79-.5c-7-1.45-13.78.85-17,5.8-3.73,5.69-3.72,15.34.37,20.54,4.74,6,11.26,6.25,18,4.73,1.61-.36,2.68-1,3.21,1.34s-.89,2.56-2.38,2.83C396,542.55,393.65,542.84,391.31,543.18Z"/><path class="cls-3" d="M526,522.56c0-5.62.08-11.24,0-16.85,0-2,.33-2.89,2.61-2.82,5.48.16,11,.08,16.47,0,1.41,0,2.38.08,2.32,1.94,0,1.65-.38,2.53-2.29,2.47-3.61-.11-7.24.09-10.86-.06-2.26-.1-3.46.31-3.23,3,.28,3.21-1,7.41.59,9.41s6.08.49,9.28.69a23.69,23.69,0,0,0,3.37,0c1.89-.13,1.86,1.07,1.9,2.42s-.57,2-2,2c-3.37-.06-6.76.16-10.11-.08-2.58-.18-3.15.81-3.05,3.18.18,4.11,0,8.24.09,12.35.06,2-.64,2.54-2.58,2.56s-2.56-.6-2.53-2.56C526.11,534.3,526,528.43,526,522.56Z"/><path class="cls-3" d="M484.72,525.17c0-4.87-.16-9.75.06-14.61.13-2.73-.86-3.47-3.39-3.24-2.11.19-4.25-.08-6.37.07-1.94.13-2.62-.51-2.62-2.51,0-2.23,1.37-1.92,2.73-1.92q12.18,0,24.35,0c1.44,0,2.61-.13,2.62,2s-.94,2.57-2.72,2.38c-.24,0-.5,0-.74,0-8.73.08-8.73.08-8.73,9,0,7.61,0,15.23,0,22.85,0,1.93.31,3.58-2.73,3.56s-2.47-1.66-2.47-3.37Z"/><path class="cls-3" d="M562.53,523c0,5.61-.06,11.23,0,16.84,0,2-.41,2.84-2.66,2.88-2.47,0-2.49-1.19-2.48-3,0-11.35.06-22.7,0-34.06,0-2,.37-2.81,2.61-2.83s2.57,1.07,2.54,2.95C562.48,511.55,562.53,517.29,562.53,523Z"/><path class="cls-3" d="M514.42,522.62c0,5.74-.06,11.49,0,17.23,0,2-.33,2.87-2.62,2.89s-2.54-1.1-2.54-3q.09-17,0-34.09c0-2,.39-2.8,2.62-2.82s2.58,1,2.55,2.89C514.36,511.38,514.42,517,514.42,522.62Z"/><path class="cls-1" d="M261.56,538.93l.79-1.58a3.53,3.53,0,0,1,.58,3.46C261.91,540.57,261.92,539.61,261.56,538.93Z"/><path class="cls-3" d="M713.1,584c-1.86-17-11.66-26.64-28.74-28-11.17-.89-22.45-.25-33.68-.47-2.61,0-3.34.66-3.32,3.3.13,14.35.06,28.7.06,43q0,22.1,0,44.18c0,1.73-.12,3.07,2.41,3,10.86-.15,21.73.22,32.57-.18,17.35-.63,28.17-10.4,30.49-27.55A154.63,154.63,0,0,0,713.1,584Zm-14.57,36.56c-1.57,10-8.17,15.35-18.39,15.63-5.24.15-10.49-.1-15.72.11-2.47.09-2.85-.85-2.83-3,.1-10.48,0-21,0-31.45,0-10.23.06-20.46,0-30.69,0-2.26.52-3,2.89-2.95,5,.18,10,0,15,.07,11,.22,18.12,6,19.4,16.84A129.51,129.51,0,0,1,698.53,620.59Z"/><path class="cls-3" d="M528.32,687.63c-1-3.72-4-5.52-7.3-7.33,4.76-2.65,7-6.46,5.65-11.59s-5.64-6.58-10.27-7.29c-3.73-.58-7.46-.1-11.18.29-1.59.16-2.08.87-2.08,2.39q.06,18,0,35.92c0,1.29.3,2.13,1.83,2.2,5.11.22,10.25.63,15.25-.75C526.72,699.69,530,693.91,528.32,687.63Zm-19.86-15.24V671c0-6.08,0-6.08,5.74-5.69,5.32.36,8.09,3.19,7.47,7.59a6.31,6.31,0,0,1-3.92,5.06,11.14,11.14,0,0,1-7.65.79C506.6,677.65,509.36,674.24,508.46,672.39ZM520,696.76c-3.13,2-6.66,1.75-10.15,1.64-1.46,0-1.41-1.12-1.42-2.12,0-2,0-4,0-6a4.35,4.35,0,0,1,0-1.49c.77-1.94-1.93-5.11,1.59-5.94,5.08-1.2,11.05,1.24,12.52,4.61A7.55,7.55,0,0,1,520,696.76Z"/><path class="cls-3" d="M746.42,714.9c-1.8-5.08-5.27-8.42-10.9-8.92-5.9-.53-10.1,2.21-12.93,7.17-2.67,4.7-3.31,9.89-3.3,15.19A31.82,31.82,0,0,0,722,742.56c2.46,5.13,6.3,8.27,12.36,8s9.86-3.55,11.81-8.86A38.47,38.47,0,0,0,746.42,714.9Zm-5.81,26c-1.25,2.8-3.1,4.87-6.35,5.06s-5.52-1.71-6.65-4.52a33.64,33.64,0,0,1,.14-26.53c1.18-2.78,3.39-4.71,6.71-4.46s5.07,2.35,6.29,5.16c1.73,4,1.83,8.23,1.9,12.47C742.55,732.49,742.46,736.85,740.61,740.94Z"/><path class="cls-3" d="M816,717.48c-1.62-6.55-6.29-11.1-11.71-11.51-6.49-.49-11.52,2.54-14.11,9.32a35.06,35.06,0,0,0,.64,27.62c2.11,4.74,5.83,7.64,11.38,7.63s9.41-2.64,12-7.46c2.46-4.66,2.85-9.73,3-14.85A41.32,41.32,0,0,0,816,717.48Zm-7.27,24.36c-1.34,2.5-3.23,4.12-6.14,4.17a6.3,6.3,0,0,1-6.16-4.11,32.88,32.88,0,0,1,.22-27.49,6.25,6.25,0,0,1,5.9-3.93c2.9,0,4.84,1.56,6.2,4.07,2.36,4.35,2.27,9.12,2.63,13.69C810.94,733,811,737.61,808.69,741.84Z"/><path class="cls-3" d="M621.27,502.76c-4-.53-8,0-11.95.2-2.31.1-3.24.84-3.14,3.36.22,5.48.07,11,.07,16.48,0,5.74,0,11.48,0,17.22,0,1.46,0,2.66,2,2.75,5.12.22,10.24.57,15.3-.55,7.8-1.72,12.7-6.44,14.68-14.24C641.61,514.53,634.89,504.56,621.27,502.76Zm-7.73,36.14c-1.91-.21-2.16-1.07-2.14-2.65.05-4.6,0-9.2,0-13.81,0-4.23,0-8.46,0-12.69,0-1-.38-2.17,1.11-2.81C620,503.75,631,509.26,633,517.2,636.28,530.62,627.41,540.45,613.54,538.9Z"/><path class="cls-3" d="M459.36,523.56c5.92-3.77,7.9-7.62,6.67-12.9-1.08-4.64-4.64-7.12-11.36-8-3.64-.49-7.22.15-10.82.38-2,.13-2,1.39-2,2.87q0,17,0,34.05c0,1.66,0,2.84,2.3,2.78,2-.05,2.92-.42,2.83-2.67-.16-4.11-.06-8.23,0-12.35,0-.93-.27-1.93,1.16-2.36a8.88,8.88,0,0,1,11.08,5.74c.72,2.25,1.13,4.6,1.69,6.9,1.23,5.07,1.3,5.11,6.63,4.27C464.62,536.05,466.1,528.08,459.36,523.56Zm-3.47-2.6c-7.15,2.25-8.95.91-8.95-6.68a4.36,4.36,0,0,1,0-1.49c.8-2-2.12-5.58,2.41-6.13,6.51-.78,10.73,1.25,11.55,5.5S459.77,519.73,455.89,521Z"/></g></g></svg>