<svg xmlns="http://www.w3.org/2000/svg" width="162" height="96.336" viewBox="0 0 162 96.336">
  <g id="Group_77" data-name="Group 77" transform="translate(-710.779 -417.408)">
    <path id="Path_305" data-name="Path 305" d="M747.567,489.788a39.233,39.233,0,0,1-19.63-9.614,45.263,45.263,0,0,1,4.928-6.824c3.171,7.308,8.238,13.125,14.7,16.438" fill="#fff"/>
    <path id="Path_306" data-name="Path 306" d="M729.113,454.613a58.23,58.23,0,0,0-14.433,7.108,45.824,45.824,0,0,1-3.829-20.671,45.041,45.041,0,0,1,20.664-2.556,50.811,50.811,0,0,0-2.4,16.119" fill="#fff"/>
    <path id="Path_307" data-name="Path 307" d="M729.3,458.8a48.047,48.047,0,0,0,2.028,10.368,48.381,48.381,0,0,0-6.361,8.141,60.152,60.152,0,0,1-8.534-11.931c3.4-2.763,9.562-5.435,12.867-6.578" fill="#fff"/>
    <path id="Path_308" data-name="Path 308" d="M740.171,477.834a39.178,39.178,0,0,1-7.084-20.681,45.711,45.711,0,0,1,8.308-1.341c-2.919,7.413-3.455,15.109-1.224,22.022" fill="#fff"/>
    <path id="Path_309" data-name="Path 309" d="M751.993,439.91a58.679,58.679,0,0,0-15.231-5.182,45.813,45.813,0,0,1,11.906-17.32,45.013,45.013,0,0,1,16.417,12.8,50.81,50.81,0,0,0-13.092,9.7" fill="#fff"/>
    <path id="Path_310" data-name="Path 310" d="M749.154,443.009a48.028,48.028,0,0,0-5.891,8.763,48.889,48.889,0,0,0-10.252,1.258,59.722,59.722,0,0,1,2.4-14.469c4.36.446,10.6,2.913,13.745,4.448" fill="#fff"/>
    <path id="Path_311" data-name="Path 311" d="M743.39,464.152a39.168,39.168,0,0,1,9.615-19.632,45.238,45.238,0,0,1,6.825,4.928c-7.309,3.172-13.127,8.24-16.44,14.7" fill="#fff"/>
    <path id="Path_312" data-name="Path 312" d="M778.567,445.7a58.6,58.6,0,0,0-7.106-14.431,45.751,45.751,0,0,1,20.664-3.832,45.06,45.06,0,0,1,2.562,20.663,50.837,50.837,0,0,0-16.12-2.4" fill="#fff"/>
    <path id="Path_313" data-name="Path 313" d="M774.37,445.878a47.892,47.892,0,0,0-10.364,2.033,48.065,48.065,0,0,0-8.14-6.363,59.9,59.9,0,0,1,11.931-8.537c2.763,3.4,5.433,9.562,6.573,12.867" fill="#fff"/>
    <path id="Path_314" data-name="Path 314" d="M760.6,486.089l-6.766-10.3v10.3h-2.221V471.447h2.036l6.766,10.282V471.447h2.221v14.642Z" fill="#fff"/>
    <path id="Path_315" data-name="Path 315" d="M777.154,486.089V476.3l-3.372,7.136h-1.645l-3.455-7.136v9.789h-2.221V471.447h2.221l4.277,9.11,4.195-9.11h2.221v14.642Z" fill="#fff"/>
    <path id="Path_316" data-name="Path 316" d="M787.065,486.212a6.631,6.631,0,0,1-5.183-1.933l1.481-1.46a4.829,4.829,0,0,0,3.743,1.4c1.912,0,3.023-.822,3.023-2.241a1.969,1.969,0,0,0-.576-1.522,2.542,2.542,0,0,0-1.6-.617l-1.727-.246a5.015,5.015,0,0,1-2.777-1.173,3.64,3.64,0,0,1-1.069-2.8c0-2.549,1.851-4.3,4.894-4.3a6.094,6.094,0,0,1,4.545,1.666l-1.419,1.4a4.3,4.3,0,0,0-3.187-1.131c-1.728,0-2.674.987-2.674,2.282a1.743,1.743,0,0,0,.556,1.358,3.257,3.257,0,0,0,1.645.678l1.666.247a4.843,4.843,0,0,1,2.735,1.09,3.829,3.829,0,0,1,1.192,3c0,2.694-2.2,4.3-5.264,4.3" fill="#fff"/>
    <path id="Path_317" data-name="Path 317" d="M802.713,474.429a3.168,3.168,0,0,0-2.488-.987h-2.694v10.652h2.694a3.165,3.165,0,0,0,2.488-.987c.761-.843.782-2.427.782-4.442s-.021-3.393-.782-4.236m1.522,10.282a5.229,5.229,0,0,1-3.784,1.378H795.31V471.447h5.141a5.225,5.225,0,0,1,3.784,1.378c1.583,1.583,1.48,3.722,1.48,5.84s.1,4.462-1.48,6.046" fill="#fff"/>
    <path id="Path_318" data-name="Path 318" d="M813.734,486.212a5.3,5.3,0,0,1-3.845-1.563c-1.44-1.439-1.42-3.064-1.42-5.881s-.02-4.442,1.42-5.882a5.305,5.305,0,0,1,3.845-1.562,5.04,5.04,0,0,1,5.223,4.5H816.7a3.028,3.028,0,0,0-5.121-1.624c-.719.781-.884,1.624-.884,4.565s.165,3.784.884,4.565a2.927,2.927,0,0,0,2.16.884,2.957,2.957,0,0,0,2.982-2.508h2.241a5.054,5.054,0,0,1-5.223,4.5" fill="#fff"/>
    <path id="Path_319" data-name="Path 319" d="M756,499.336l-3.373-5.137v5.137h-1.107v-7.3h1.015l3.373,5.127v-5.127h1.107v7.3Z" fill="#fff"/>
    <path id="Path_320" data-name="Path 320" d="M761.625,497.039h-1.22c-.615,0-.933.277-.933.749s.3.738.953.738a1.242,1.242,0,0,0,.975-.3,1.045,1.045,0,0,0,.225-.769Zm.021,2.3v-.471a1.712,1.712,0,0,1-1.385.533,1.836,1.836,0,0,1-1.394-.472,1.6,1.6,0,0,1-.41-1.117c0-.872.605-1.5,1.794-1.5h1.374v-.369c0-.657-.328-.974-1.138-.974a1.218,1.218,0,0,0-1.138.5l-.687-.646a2.133,2.133,0,0,1,1.866-.749c1.426,0,2.143.606,2.143,1.784v3.476Z" fill="#fff"/>
    <path id="Path_321" data-name="Path 321" d="M765.881,499.336a1.353,1.353,0,0,1-1.425-1.445V495.03h-.595v-.8h.595v-1.579H765.5v1.579h1.005v.8H765.5v2.81a.528.528,0,0,0,.575.6h.43v.892Z" fill="#fff"/>
    <path id="Path_322" data-name="Path 322" d="M767.891,494.138h1.045v5.2h-1.045Zm-.031-2.133h1.107v1.107H767.86Z" fill="#fff"/>
    <path id="Path_323" data-name="Path 323" d="M773.335,495.307a1.058,1.058,0,0,0-.769-.3,1.034,1.034,0,0,0-.758.3,3.008,3.008,0,0,0,0,2.85,1.043,1.043,0,0,0,.758.308,1.067,1.067,0,0,0,.769-.308,3.008,3.008,0,0,0,0-2.85m.79,3.476a2.1,2.1,0,0,1-1.559.615,2.079,2.079,0,0,1-1.548-.615,3.711,3.711,0,0,1,0-4.092,2.082,2.082,0,0,1,1.548-.614,2.107,2.107,0,0,1,1.559.614,3.711,3.711,0,0,1,0,4.092" fill="#fff"/>
    <path id="Path_324" data-name="Path 324" d="M779.375,499.336v-3.168a1.009,1.009,0,0,0-1.046-1.159,1.036,1.036,0,0,0-1.077,1.159v3.168h-1.046v-5.2h1.026v.523a1.858,1.858,0,0,1,1.384-.585,1.806,1.806,0,0,1,1.282.472,1.909,1.909,0,0,1,.523,1.466v3.322Z" fill="#fff"/>
    <path id="Path_325" data-name="Path 325" d="M784.861,497.039h-1.22c-.615,0-.933.277-.933.749s.3.738.953.738a1.238,1.238,0,0,0,.974-.3,1.04,1.04,0,0,0,.226-.769Zm.021,2.3v-.471a1.712,1.712,0,0,1-1.384.533,1.837,1.837,0,0,1-1.395-.472,1.6,1.6,0,0,1-.41-1.117c0-.872.6-1.5,1.794-1.5h1.374v-.369c0-.657-.328-.974-1.138-.974a1.218,1.218,0,0,0-1.138.5l-.687-.646a2.131,2.131,0,0,1,1.866-.749c1.425,0,2.143.606,2.143,1.784v3.476Z" fill="#fff"/>
    <path id="Path_326" data-name="Path 326" d="M788.963,499.336a1.325,1.325,0,0,1-1.426-1.435v-5.865h1.046v5.8c0,.4.144.6.564.6h.462v.892Z" fill="#fff"/>
    <path id="Path_327" data-name="Path 327" d="M798.775,499.336v-4.881l-1.682,3.558h-.82l-1.723-3.558v4.881h-1.107v-7.3h1.107l2.133,4.543,2.091-4.543h1.107v7.3Z" fill="#fff"/>
    <path id="Path_328" data-name="Path 328" d="M801.709,494.138h1.046v5.2h-1.046Zm-.031-2.133h1.107v1.107h-1.107Z" fill="#fff"/>
    <path id="Path_329" data-name="Path 329" d="M807.635,499.336v-3.168a1.009,1.009,0,0,0-1.045-1.159,1.036,1.036,0,0,0-1.077,1.159v3.168h-1.045v-5.2h1.025v.523a1.858,1.858,0,0,1,1.384-.585,1.808,1.808,0,0,1,1.282.472,1.912,1.912,0,0,1,.522,1.466v3.322Z" fill="#fff"/>
    <path id="Path_330" data-name="Path 330" d="M813.029,495.307a1.057,1.057,0,0,0-.769-.3,1.035,1.035,0,0,0-.759.3,3.015,3.015,0,0,0,0,2.85,1.043,1.043,0,0,0,.759.308,1.065,1.065,0,0,0,.769-.308,3.008,3.008,0,0,0,0-2.85m.79,3.476a2.1,2.1,0,0,1-1.559.615,2.077,2.077,0,0,1-1.548-.615,3.711,3.711,0,0,1,0-4.092,2.081,2.081,0,0,1,1.548-.614,2.107,2.107,0,0,1,1.559.614,3.711,3.711,0,0,1,0,4.092" fill="#fff"/>
    <path id="Path_331" data-name="Path 331" d="M818.761,495.358a.969.969,0,0,0-.78-.349,1.07,1.07,0,0,0-1.035,1.169v3.158H815.9v-5.2h1.025v.564a1.725,1.725,0,0,1,1.384-.626,1.607,1.607,0,0,1,1.24.493Z" fill="#fff"/>
    <path id="Path_332" data-name="Path 332" d="M820.453,494.138H821.5v5.2h-1.046Zm-.031-2.133h1.107v1.107h-1.107Z" fill="#fff"/>
    <path id="Path_333" data-name="Path 333" d="M824.76,499.336a1.352,1.352,0,0,1-1.425-1.445V495.03h-.6v-.8h.6v-1.579h1.045v1.579h1.006v.8H824.38v2.81a.528.528,0,0,0,.574.6h.432v.892Z" fill="#fff"/>
    <path id="Path_334" data-name="Path 334" d="M828.4,500.372a1.689,1.689,0,0,1-.379.646,1.443,1.443,0,0,1-1.067.379h-.42v-.943h.267c.441,0,.594-.133.748-.554l.287-.81-1.815-4.952h1.107l1.241,3.66,1.21-3.66H830.7Z" fill="#fff"/>
    <path id="Path_335" data-name="Path 335" d="M836.193,499.4a3.3,3.3,0,0,1-2.584-.964l.739-.728a2.407,2.407,0,0,0,1.865.7c.954,0,1.507-.411,1.507-1.118a.981.981,0,0,0-.287-.759,1.27,1.27,0,0,0-.8-.308l-.862-.122a2.5,2.5,0,0,1-1.384-.585,1.816,1.816,0,0,1-.533-1.395,2.158,2.158,0,0,1,2.441-2.142,3.04,3.04,0,0,1,2.265.83l-.707.7a2.146,2.146,0,0,0-1.589-.564c-.862,0-1.333.493-1.333,1.139a.869.869,0,0,0,.276.676,1.64,1.64,0,0,0,.821.339l.83.122a2.419,2.419,0,0,1,1.364.544,1.909,1.909,0,0,1,.594,1.5c0,1.343-1.1,2.143-2.624,2.143" fill="#fff"/>
    <path id="Path_336" data-name="Path 336" d="M843.37,499.336v-.523a1.856,1.856,0,0,1-1.384.585,1.8,1.8,0,0,1-1.281-.472,1.908,1.908,0,0,1-.523-1.466v-3.322h1.045v3.168a1.01,1.01,0,0,0,1.047,1.159,1.035,1.035,0,0,0,1.076-1.159v-3.168H844.4v5.2Z" fill="#fff"/>
    <path id="Path_337" data-name="Path 337" d="M848.241,495.009c-.943,0-1.086.8-1.086,1.723s.143,1.733,1.086,1.733,1.077-.81,1.077-1.733-.133-1.723-1.077-1.723m1.539,3.928a1.777,1.777,0,0,1-1.262.461,1.616,1.616,0,0,1-1.363-.6v2.635h-1.046v-7.3h1.025v.554a1.6,1.6,0,0,1,1.374-.616,1.8,1.8,0,0,1,1.272.462,4.434,4.434,0,0,1,0,4.4" fill="#fff"/>
    <path id="Path_338" data-name="Path 338" d="M853.963,495.009c-.943,0-1.086.8-1.086,1.723s.143,1.733,1.086,1.733,1.077-.81,1.077-1.733-.133-1.723-1.077-1.723m1.538,3.928a1.772,1.772,0,0,1-1.261.461,1.616,1.616,0,0,1-1.363-.6v2.635h-1.046v-7.3h1.024v.554a1.6,1.6,0,0,1,1.374-.616,1.8,1.8,0,0,1,1.272.462,4.427,4.427,0,0,1,0,4.4" fill="#fff"/>
    <path id="Path_339" data-name="Path 339" d="M858.946,499.336a1.325,1.325,0,0,1-1.425-1.435v-5.865h1.045v5.8c0,.4.144.6.565.6h.461v.892Z" fill="#fff"/>
    <path id="Path_340" data-name="Path 340" d="M860.792,494.138h1.046v5.2h-1.046Zm-.031-2.133h1.107v1.107h-1.107Z" fill="#fff"/>
    <path id="Path_341" data-name="Path 341" d="M866.513,495.6a1.071,1.071,0,0,0-1.025-.656,1.087,1.087,0,0,0-1.035.656,1.651,1.651,0,0,0-.134.708h2.338a1.632,1.632,0,0,0-.144-.708m-2.194,1.436a1.279,1.279,0,0,0,1.323,1.456,1.553,1.553,0,0,0,1.261-.533l.667.625a2.441,2.441,0,0,1-1.949.81c-1.3,0-2.337-.687-2.337-2.666,0-1.682.872-2.655,2.2-2.655a2.21,2.21,0,0,1,2.205,2.5v.462Z" fill="#fff"/>
    <path id="Path_342" data-name="Path 342" d="M871.989,495.358a.966.966,0,0,0-.779-.349,1.07,1.07,0,0,0-1.035,1.169v3.158h-1.046v-5.2h1.025v.564a1.725,1.725,0,0,1,1.384-.626,1.609,1.609,0,0,1,1.241.493Z" fill="#fff"/>
    <path id="Path_343" data-name="Path 343" d="M755.206,505.828a1.579,1.579,0,0,0-1.24-.492h-1.344v5.311h1.344a1.579,1.579,0,0,0,1.24-.492,3.543,3.543,0,0,0,.39-2.215c0-1.005-.011-1.691-.39-2.112m.759,5.127a2.606,2.606,0,0,1-1.886.686h-2.564v-7.3h2.564a2.607,2.607,0,0,1,1.886.687,3.773,3.773,0,0,1,.738,2.912c0,1.056.052,2.225-.738,3.015" fill="#fff"/>
    <path id="Path_344" data-name="Path 344" d="M761.236,507.909a1.073,1.073,0,0,0-1.026-.656,1.086,1.086,0,0,0-1.035.656,1.651,1.651,0,0,0-.134.708h2.338a1.648,1.648,0,0,0-.143-.708m-2.2,1.436a1.279,1.279,0,0,0,1.323,1.456,1.552,1.552,0,0,0,1.261-.533l.667.625a2.441,2.441,0,0,1-1.949.81c-1.3,0-2.337-.687-2.337-2.666,0-1.681.871-2.655,2.2-2.655a2.21,2.21,0,0,1,2.2,2.5v.461Z" fill="#fff"/>
    <path id="Path_345" data-name="Path 345" d="M765.758,511.642h-.851l-1.907-5.2h1.107l1.231,3.66,1.22-3.66h1.108Z" fill="#fff"/>
    <path id="Path_346" data-name="Path 346" d="M771.49,507.909a1.073,1.073,0,0,0-1.026-.656,1.086,1.086,0,0,0-1.035.656,1.636,1.636,0,0,0-.133.708h2.337a1.648,1.648,0,0,0-.143-.708m-2.194,1.436a1.278,1.278,0,0,0,1.322,1.456,1.552,1.552,0,0,0,1.261-.533l.667.625a2.441,2.441,0,0,1-1.949.81c-1.3,0-2.337-.687-2.337-2.666,0-1.681.871-2.655,2.2-2.655a2.21,2.21,0,0,1,2.205,2.5v.461Z" fill="#fff"/>
    <path id="Path_347" data-name="Path 347" d="M775.5,511.642a1.326,1.326,0,0,1-1.426-1.436v-5.864h1.046v5.8c0,.4.144.6.564.6h.462v.893Z" fill="#fff"/>
    <path id="Path_348" data-name="Path 348" d="M779.826,507.612a1.058,1.058,0,0,0-.769-.3,1.037,1.037,0,0,0-.759.3,3.01,3.01,0,0,0,0,2.851,1.048,1.048,0,0,0,.759.307,1.07,1.07,0,0,0,.769-.307,3.01,3.01,0,0,0,0-2.851m.789,3.476a2.1,2.1,0,0,1-1.558.615,2.081,2.081,0,0,1-1.548-.615,3.709,3.709,0,0,1,0-4.091,2.077,2.077,0,0,1,1.548-.615,2.1,2.1,0,0,1,1.558.615,3.7,3.7,0,0,1,0,4.091" fill="#fff"/>
    <path id="Path_349" data-name="Path 349" d="M784.83,507.314c-.943,0-1.087.8-1.087,1.723s.144,1.733,1.087,1.733,1.077-.81,1.077-1.733-.134-1.723-1.077-1.723m1.538,3.928a1.772,1.772,0,0,1-1.261.461,1.62,1.62,0,0,1-1.364-.6v2.636H782.7v-7.3h1.025V507a1.6,1.6,0,0,1,1.374-.615,1.8,1.8,0,0,1,1.271.461,4.427,4.427,0,0,1,0,4.4" fill="#fff"/>
    <path id="Path_350" data-name="Path 350" d="M794.756,511.642v-3.169a1.009,1.009,0,0,0-1.046-1.158,1.03,1.03,0,0,0-1.077,1.107v3.22h-1.046v-3.169a1.009,1.009,0,0,0-1.045-1.158,1.035,1.035,0,0,0-1.077,1.158v3.169h-1.046v-5.2h1.025v.523a1.885,1.885,0,0,1,1.385-.584,1.662,1.662,0,0,1,1.476.758,1.977,1.977,0,0,1,1.631-.758,1.882,1.882,0,0,1,1.312.471,1.935,1.935,0,0,1,.553,1.467v3.322Z" fill="#fff"/>
    <path id="Path_351" data-name="Path 351" d="M800.426,507.909a1.071,1.071,0,0,0-1.025-.656,1.088,1.088,0,0,0-1.036.656,1.667,1.667,0,0,0-.133.708h2.338a1.633,1.633,0,0,0-.144-.708m-2.194,1.436a1.279,1.279,0,0,0,1.323,1.456,1.553,1.553,0,0,0,1.261-.533l.667.625a2.443,2.443,0,0,1-1.949.81c-1.3,0-2.337-.687-2.337-2.666,0-1.681.871-2.655,2.2-2.655a2.21,2.21,0,0,1,2.2,2.5v.461Z" fill="#fff"/>
    <path id="Path_352" data-name="Path 352" d="M806.21,511.642v-3.169a1.009,1.009,0,0,0-1.046-1.158,1.035,1.035,0,0,0-1.077,1.158v3.169h-1.045v-5.2h1.025v.523a1.861,1.861,0,0,1,1.384-.584,1.806,1.806,0,0,1,1.282.471,1.909,1.909,0,0,1,.522,1.467v3.322Z" fill="#fff"/>
    <path id="Path_353" data-name="Path 353" d="M810.465,511.642a1.353,1.353,0,0,1-1.425-1.446v-2.861h-.595v-.8h.595v-1.579h1.046v1.579h1.005v.8h-1.005v2.81a.528.528,0,0,0,.574.6h.431v.893Z" fill="#fff"/>
    <path id="Path_354" data-name="Path 354" d="M817.469,511.7a2.645,2.645,0,0,1-1.917-.779c-.718-.718-.708-1.528-.708-2.933s-.01-2.214.708-2.932a2.645,2.645,0,0,1,1.917-.779,2.513,2.513,0,0,1,2.6,2.245h-1.127a1.511,1.511,0,0,0-2.554-.81c-.358.39-.441.81-.441,2.276s.083,1.887.441,2.277a1.46,1.46,0,0,0,1.077.441,1.475,1.475,0,0,0,1.487-1.251h1.117a2.519,2.519,0,0,1-2.6,2.245" fill="#fff"/>
    <path id="Path_355" data-name="Path 355" d="M824.165,507.612a1.061,1.061,0,0,0-.77-.3,1.037,1.037,0,0,0-.759.3,3.017,3.017,0,0,0,0,2.851,1.048,1.048,0,0,0,.759.307,1.072,1.072,0,0,0,.77-.307,3.017,3.017,0,0,0,0-2.851m.789,3.476a2.108,2.108,0,0,1-1.559.615,2.081,2.081,0,0,1-1.548-.615,3.709,3.709,0,0,1,0-4.091,2.077,2.077,0,0,1,1.548-.615,2.1,2.1,0,0,1,1.559.615,3.709,3.709,0,0,1,0,4.091" fill="#fff"/>
    <path id="Path_356" data-name="Path 356" d="M830.173,511.642v-.524a1.856,1.856,0,0,1-1.384.585,1.8,1.8,0,0,1-1.281-.471,1.91,1.91,0,0,1-.523-1.467v-3.322h1.045v3.169a1.009,1.009,0,0,0,1.047,1.158,1.035,1.035,0,0,0,1.076-1.158v-3.169H831.2v5.2Z" fill="#fff"/>
    <path id="Path_357" data-name="Path 357" d="M836.08,511.642v-3.169a1.009,1.009,0,0,0-1.046-1.158,1.035,1.035,0,0,0-1.076,1.158v3.169h-1.046v-5.2h1.025v.523a1.861,1.861,0,0,1,1.384-.584,1.806,1.806,0,0,1,1.282.471,1.91,1.91,0,0,1,.523,1.467v3.322Z" fill="#fff"/>
    <path id="Path_358" data-name="Path 358" d="M840.838,511.7c-1.169,0-2.317-.718-2.317-2.666s1.148-2.655,2.317-2.655a2.13,2.13,0,0,1,1.712.728l-.718.7a1.207,1.207,0,0,0-.994-.492,1.173,1.173,0,0,0-.964.461,1.926,1.926,0,0,0-.307,1.261,1.958,1.958,0,0,0,.307,1.271,1.172,1.172,0,0,0,.964.462,1.207,1.207,0,0,0,.994-.492l.718.687a2.139,2.139,0,0,1-1.712.738" fill="#fff"/>
    <path id="Path_359" data-name="Path 359" d="M843.811,506.444h1.046v5.2h-1.046Zm-.031-2.133h1.108v1.107H843.78Z" fill="#fff"/>
    <path id="Path_360" data-name="Path 360" d="M847.964,511.642a1.325,1.325,0,0,1-1.425-1.436v-5.864h1.045v5.8c0,.4.144.6.565.6h.461v.893Z" fill="#fff"/>
  </g>
</svg>
