<svg xmlns="http://www.w3.org/2000/svg" viewBox="0 0 354.34 354.81"><defs><style>.cls-1{fill:#fff;}</style></defs><g id="Layer_2" data-name="Layer 2"><g id="Layer_1-2" data-name="Layer 1"><path class="cls-1" d="M184.65,0A175.64,175.64,0,0,1,289.32,39.92a179.14,179.14,0,0,1,36.22,40.2A174.34,174.34,0,0,1,354,165.79q.52,8.25.31,16.49a175.35,175.35,0,0,1-10.95,56.47,177.22,177.22,0,0,1-23.93,44,173.61,173.61,0,0,1-32,33.11,177.41,177.41,0,0,1-33.34,21,173.17,173.17,0,0,1-51.21,15.63,120,120,0,0,1-13.76,1.44c-.66,0-1.55-.23-1.57.92h-1c-.64-.94-1.61-.51-2.42-.49a188.43,188.43,0,0,1-39.46-2.84,174.52,174.52,0,0,1-58.26-22,178.24,178.24,0,0,1-46.82-40.4,176.33,176.33,0,0,1-27.33-46.38A173.55,173.55,0,0,1,0,185.12q0-7.91,0-15.82a150,150,0,0,1,2.16-21.36A174.64,174.64,0,0,1,20.42,94.1,179.43,179.43,0,0,1,62.69,41.73,175.14,175.14,0,0,1,169.79,0ZM7.23,177.12c-.55,93.66,75.53,168.38,166.43,170,97.15,1.74,171.91-76.17,173.41-166.55C348.7,82.3,270,8.61,179.86,7.16,83,5.59,6.3,84.87,7.23,177.12Z"/><path class="cls-1" d="M332.41,317.34c-.38,1.1-.77,2.19-1.13,3.3a1.29,1.29,0,0,1-1.4,1c-.73,0-.86-.57-1-1.12a12.67,12.67,0,0,0-1.3-3.14c-.06,1.11-.12,2.22-.19,3.32,0,.54-.27.91-.87.91a.78.78,0,0,1-.86-.9c.15-2,.31-4,.51-5.93.06-.61.58-.67,1.08-.7a1.41,1.41,0,0,1,1.58.79c.43,1,.81,2.07,1.27,3.28a6,6,0,0,0,1.36-2.7c.29-.93.78-1.53,1.89-1.37s1.15,1,1.21,1.79c.12,1.51.11,3,.14,4.54,0,.58,0,1.16-.81,1.2-.93.06-1-.62-1-1.28,0-.95,0-1.9,0-2.86Z"/><path class="cls-1" d="M325.4,315.09c-.08.11-.19.44-.34.46-2.85.46-1.67,2.69-1.91,4.29-.1.7.36,1.8-.91,1.8-1.08,0-.79-1-.87-1.62-.21-1.69.91-3.93-2-4.53-.49-.1-.36-1,.14-1.11a15.53,15.53,0,0,1,5.44-.13C325.29,314.27,325.47,314.62,325.4,315.09Z"/><path class="cls-1" d="M38.91,176.82c-.32-76,63.06-139.57,141.22-138,72.76,1.41,136.84,62,135.31,141.42A138.3,138.3,0,0,1,173.55,315.43C100,313.83,38.59,253,38.91,176.82Zm7.18.17c-.18,72.16,58.16,130.41,129.14,131.26a131.07,131.07,0,0,0,133-130.08c.46-73.69-58.87-131.39-129.78-132.11C105,45.32,45.84,105.44,46.09,177Z"/><path class="cls-1" d="M331.62,215.12c.34,2.55-.45,4.13-2.59,4.81A6.43,6.43,0,0,1,323,218c-.73-1-.27-6.08.64-6.8a1.51,1.51,0,0,1,1.37-.12c2.47.63,5,1.17,7.37,2a4.26,4.26,0,0,1,1.58,6.91c-.46.5-1,.9-1.67.48-.79-.52-.25-1.08.14-1.6C333.34,217.61,333.43,216.44,331.62,215.12Zm-4.28,2.63c1.46,0,2.57-.44,2.48-1.8-.16-2.3-2.31-1.65-3.67-2.06a1.4,1.4,0,0,0-1.89,1.51C324.39,217.32,326,217.52,327.34,217.75Z"/><path class="cls-1" d="M314.53,230.83a4.67,4.67,0,0,1,5-4.93c3.75,0,7.54,3.06,7.45,6a5.21,5.21,0,0,1-5,4.9C318.43,236.73,314,234.58,314.53,230.83Zm4.76-2.62c-1.68-.07-2.81.52-2.87,2.39s2.55,3.76,5.3,3.87a2.53,2.53,0,0,0,2.9-2.49C324.78,230.09,322.18,228.3,319.29,228.21Z"/><path class="cls-1" d="M288.79,287.05a2.94,2.94,0,0,0,2.6-1.27,1.4,1.4,0,0,0,.45-1.72,1.44,1.44,0,0,0-1.86-.68,29.67,29.67,0,0,0-3.28,1.44,3.09,3.09,0,0,1-3.94-.61,3.47,3.47,0,0,1-.27-4.24c1.1-2,3.39-3.21,5.15-2.71.56.16,1.43.26,1.29,1.1a1.48,1.48,0,0,1-1.39,1.15,8.25,8.25,0,0,0-1.66.06,1.94,1.94,0,0,0-1.51,2.57c.47,1.39,1.53.7,2.39.34a20.39,20.39,0,0,1,3.28-1.41c2.59-.57,4.36,1.28,3.89,3.89-.42,2.31-3.28,4.52-5.43,4.13-.73-.14-1.8-.22-1.63-1.32C287,286.83,287.8,286.56,288.79,287.05Z"/><path class="cls-1" d="M333.83,178.39c-2.06-.23-2.84-1.51-3-3.41-.05-.62.38-1.54-.69-1.75a.94.94,0,0,0-1,.56,1.32,1.32,0,0,0,.39,1.88c.94.67,1.22,1.86.38,2.36s-1.64-.5-2.13-1.38c-1.73-3.11-.18-5.83,3.36-5.88a9.45,9.45,0,0,1,1.19,0c1.32.16,3.3-.71,3.81.35.68,1.41.48,3.36.31,5A2.5,2.5,0,0,1,333.83,178.39Zm-.41-5.23c-1,0-1.18.5-1.13,1.21s.23,1.62,1.28,1.6c.74,0,1.09-.56,1.1-1.27A1.34,1.34,0,0,0,333.42,173.16Z"/><path class="cls-1" d="M296.25,281.35a6.05,6.05,0,0,1-4.61-3.2,3.67,3.67,0,0,1,.08-4.08,4,4,0,0,1,6.37-.63,1,1,0,0,1,0,1.62,22.45,22.45,0,0,0-1.84,2.19c-.3.44-1.22.91-.39,1.57s1.35.15,1.91-.38a2.93,2.93,0,0,0,1-1.86c.07-.72.59-.9,1.22-.73s.59.67.59,1.15C300.62,278.92,298.17,281.33,296.25,281.35ZM295.7,275c.07-.81-.49-.75-.94-.77-1.08-.06-1.57.62-1.69,1.56-.07.55.16,1.25.83,1.14C294.94,276.8,295.12,275.66,295.7,275Z"/><path class="cls-1" d="M330.32,210.53a2.48,2.48,0,0,1-2.33-2.65c0-.63,0-1.27,0-1.91s0-1.18-.84-1.12a1.1,1.1,0,0,0-1,1.1,1.41,1.41,0,0,0,.1.92c.57.76.91,1.5.25,2.36a.73.73,0,0,1-1.06.12,3,3,0,0,1-1.2-2.48c-.16-2.8,1.15-4.17,4-4,1.66.09,3.31.38,5,.6a2.09,2.09,0,0,1,.85.28,39.45,39.45,0,0,1-.56,4.87,2.31,2.31,0,0,1-2.17,1.92Zm1.54-3.57c0-.86-.22-1.61-1.24-1.67-.8,0-1.09.56-1.13,1.23-.06.89.27,1.56,1.27,1.63C331.57,208.2,331.86,207.7,331.86,207Z"/><path class="cls-1" d="M333.72,196.08a28.18,28.18,0,0,0-3.29-.42c-1,0-2.43-.63-2.51,1.22-.08,1.61,1.11,1.63,2.28,1.71s2.19.35,3.29.44c.93.08,1.24.51,1.17,1.39s-.63,1-1.33.94c-2.2-.28-4.39-.59-6.58-.89-.47-.06-1.28-.24-1.06-.66,1-1.77-.16-3.76.7-5.48a2,2,0,0,1,1.74-1.08,32,32,0,0,1,6.63.56c.71.08.88.58.77,1.21C335.35,196.08,334.57,196.13,333.72,196.08Z"/><path class="cls-1" d="M330.46,150.58c3,0,4.68,1.44,4.68,4.13S333,159.24,330,159.2a4.39,4.39,0,0,1-4.44-4.33C325.53,152.27,327.43,150.6,330.46,150.58Zm.1,6.28c1.1-.14,2.63-.26,2.66-2.22,0-1.56-1.17-2.1-2.39-2-1.44.11-3.23.31-3.28,2.31C327.51,156.6,328.83,156.92,330.56,156.86Z"/><path class="cls-1" d="M315.33,241.17c2.86,0,3.38.78,2.14,3.32a3.42,3.42,0,0,0-.21.43c-.22.78-1.22,1.44-.46,2.34a1.21,1.21,0,0,0,1.1.1,2.26,2.26,0,0,0,1.36-2.3c0-.59-.52-1.38.58-1.41s1.28.85,1.19,1.66a4.62,4.62,0,0,1-3.06,4.17c-2.23.83-3.83-.42-5.31-1.8s-1.23-3-.61-4.63A3.08,3.08,0,0,1,315.33,241.17Zm-.29,2c-1.09,0-1.52.76-1.69,1.62s.39,1.61,1.09,1.46c1-.21,1.13-1.39,1.42-2.24C316.07,243.43,315.58,243.2,315,243.17Z"/><path class="cls-1" d="M324.67,148.18c.56-1-.39-1.51-.66-2.19-.76-1.87-.11-3.24,1.62-3.84A31.63,31.63,0,0,1,331,141c.67-.11,1.51-.25,1.7.77s-.7,1.31-1.45,1.48c-1.31.3-2.66.43-4,.78-.8.21-1.82.52-1.44,1.75.31,1,.89,1.6,2.13,1.27s2.79-.56,4.2-.79a1.16,1.16,0,0,1,1.43.93c.23.91-.49,1.12-1.08,1.24-2.25.48-4.5.93-6.77,1.31C324.09,150.07,324.82,148.81,324.67,148.18Z"/><path class="cls-1" d="M69.54,279.08c2.8-.05,5.25,3.16,4.39,5.75-.17.52-.27,1.28-1,1.16-.83-.15-.5-.89-.29-1.35a2.37,2.37,0,0,0-.44-2.66c-.84-1-2-2-3.28-1.29-1.47.75-1,2.17-.48,3.37.32.82.76,1.58,1.13,2.37.74,1.61.69,3.14-.7,4.35s-2.86.57-4.17-.28a4.64,4.64,0,0,1-2.25-5.11c.11-.54.27-1.43,1.15-1.19s.42.85.26,1.39a3.22,3.22,0,0,0,1.52,3.89c.69.47,1.37.8,2.15.1s1.34-1.35.86-2.46a40.74,40.74,0,0,1-1.71-4.18A2.76,2.76,0,0,1,69.54,279.08Z"/><path class="cls-1" d="M331.3,136.42a5,5,0,0,1-.27,1.22c-.33.81-.76,1.84-1.86,1.26-.9-.47-.62-1.22,0-2a1.67,1.67,0,0,0-.13-2.2.92.92,0,0,0-.83-.23c-.83.33-.72,1.12-.77,1.84-.09,1.41.08,3.06-1.62,3.63a2.62,2.62,0,0,1-3.51-1.61c-.73-1.68-.87-3.23.46-4.66.29-.31.81-.44,1.06-.11a2,2,0,0,1,.31,1.34c-.15,1.08-1.29,2.76.46,2.9s.9-1.85,1-2.9c.08-1.76.55-3,2.56-3C329.87,132,331.29,133.8,331.3,136.42Z"/><path class="cls-1" d="M336.54,183.69c-.35,1.08.72,2.91-.78,3.54s-2.21-1.22-3.34-1.85a3.5,3.5,0,0,1-.54-.48c-2.29-2.05-2.3-2.06-2.93.89-.12.57-.1,1.15-.88,1.15s-1-.6-1-1.29c.18-2-.85-4.85.92-5.8,1.54-.82,2.95,1.84,4.48,2.87.5.34.85,1.07,1.6.79.5-.19.49-.74.61-1.21.22-.85-.68-2.5,1.06-2.32,1.51.16.55,1.7.77,2.59A5.77,5.77,0,0,1,336.54,183.69Z"/><path class="cls-1" d="M196.33,335.38c-4.94.71-7-1.16-6.39-5.83a3.38,3.38,0,0,1,3.49-3.23c3.31-.18,3.3-.17,3.71,3.18.21,1.81.5,3.61.7,5.42a3.86,3.86,0,0,1-5.35,4c-.61-.26-1.33-.59-1-1.34s.94-.06,1.4.08C195,338.35,196,337.73,196.33,335.38Zm-.16-3.64c0-2.88-1-4.41-2.61-4.23-2.1.23-2.35,1.75-2.3,3.5s.39,3.53,2.54,3.62C195.69,334.7,196.44,333.42,196.17,331.74Z"/><path class="cls-1" d="M81.59,291c0,3.31-3.57,7.16-6.75,7.23a4.65,4.65,0,0,1-4.72-4.67c0-3,4.13-7.25,7-7.21A4.64,4.64,0,0,1,81.59,291Zm-6.27,5.89c2.3-.18,3.54-2.28,4.76-4.32a3,3,0,0,0-.72-4.06,3.12,3.12,0,0,0-4.15-.23,8.46,8.46,0,0,0-3.42,4.15C70.93,294.69,72.4,296.82,75.32,296.88Z"/><path class="cls-1" d="M182.26,330c0,4.89-2,7.07-5.63,6.59a4,4,0,0,1-2.15-.95c-2.58-2.22-2.54-8.49.06-10.68s6.93-.44,7.62,3.33A12.55,12.55,0,0,1,182.26,330Zm-1.38.34c0-.32,0-.63,0-.95-.07-2.58-1.53-4.34-3.52-4.26s-3.24,1.76-3.31,4.22c0,.32,0,.64,0,1,0,3.51,1.17,5.32,3.42,5.33S180.88,333.81,180.88,330.33Z"/><path class="cls-1" d="M316.47,253.5a4.49,4.49,0,0,1-3.61,4.39c-2.19.28-5.31-1.93-5.8-4.1a4.33,4.33,0,0,1,2.87-4.68c.92-.28,2.13-.55,2.41.63.21.92-.72,1.5-1.75,1.47a1.45,1.45,0,0,0-1.59,1.14,1.71,1.71,0,0,0,.74,1.88c1,.77,2.07,1.64,3.45,1.27.91-.24,1.61-.95,1.25-2s-.41-2.32.56-2.36C316.31,251.11,316.37,252.62,316.47,253.5Z"/><path class="cls-1" d="M119.1,325.48c-2.6,0-5.22-2.15-5.31-4.19,0-.54-.12-1.25.64-1.32s.7.54.68,1c0,1.68,1.06,2.42,2.4,2.91s2.59.65,3.49-.6c1-1.44-.42-2.13-1.16-2.95s-1.79-1.62-2.55-2.53a2.88,2.88,0,0,1,1.22-4.69c2.34-1,6.09,1.28,6.13,3.71,0,.59-.08,1.27-.73,1.33s-.59-.6-.6-1.07a2.7,2.7,0,0,0-1.26-2.44c-1.22-.7-2.68-1.24-3.72,0s-.2,2.37.83,3.3c.77.7,1.51,1.44,2.25,2.16a3,3,0,0,1,.65,3.52C121.51,325.08,120.22,325.24,119.1,325.48Z"/><path class="cls-1" d="M203.11,334.68c-1.74-.11-2.87-.6-3.3-2a2.56,2.56,0,0,1,1.36-3,12.2,12.2,0,0,1,2.2-.89c.72-.28,1.67-.33,1.41-1.51s-1.1-1.25-2-1.19a2.44,2.44,0,0,0-2.19,1.6c-.21.46-.55.92-1.08.56s-.1-.9.1-1.28a4,4,0,0,1,4-2.15,2.76,2.76,0,0,1,2.73,2.81c.06.78.4,1.56.38,2.34,0,1.24,1.61,3.24,0,3.5C205.21,333.65,204.22,334.91,203.11,334.68Zm2.22-3.2c0-1.11-.22-1.72-1.2-1.61-1.4.15-2.82.48-3.08,2.1-.17,1.06.86,1.61,1.72,1.56A2.46,2.46,0,0,0,205.33,331.48Z"/><path class="cls-1" d="M299.22,266.14c-.39-1.81.12-2.61,2.1-2.05,1.26.36,2.44,1.11,4.13,1-1-1.25-1.76-2.34-2.66-3.32a1.28,1.28,0,0,1,0-2.06c.84-.76,1.31.07,1.71.59,1.3,1.7,2.54,3.46,3.81,5.18a1.51,1.51,0,0,1,.19,2c-.51.74-1.19.54-1.92.39-2.48-.52-4.79-1.73-7.39-1.72Z"/><path class="cls-1" d="M232.67,316.94c1.41.16,2.39.6,2.87,1.76.7,1.69,1.36,3.39,2.05,5.08.15.38.3,1-.11,1-1.8-.08-2.86,1.67-4.58,1.75a2.57,2.57,0,0,1-2.6-1.3,2.24,2.24,0,0,1,.42-2.83,5.24,5.24,0,0,1,2.28-1.67c.6-.19,1.63-.23,1.27-1.29a1.75,1.75,0,0,0-1.91-1.12,2.21,2.21,0,0,0-2.23,1.78c-.13.47-.34,1.06-.9.88-.73-.22-.45-.91-.27-1.4C229.61,317.74,231.24,317.34,232.67,316.94Zm.55,8.24a2.19,2.19,0,0,0,2.29-2.35c0-.66.1-1.49-1-1.52-1.3,0-3.4,1.55-3.31,2.58S232.21,325.16,233.22,325.18Z"/><path class="cls-1" d="M80.54,300.46c0,3.1,1.83,4.33,4.33,3.43.59-.22,1.39-.74,1.7-.06S86,305,85.39,305.31c-2.78,1.28-6.29-1.35-6.16-4.59.11-2.81,3.22-6.52,6-7.06a4.26,4.26,0,0,1,4.21,1.68,3.52,3.52,0,0,1,.86,3.75c-.17.44-.26,1.07-.84,1-.85-.14-.55-.79-.38-1.31a2.69,2.69,0,0,0-1.15-3.34,3.17,3.17,0,0,0-3.62-.17A8.45,8.45,0,0,0,80.54,300.46Z"/><path class="cls-1" d="M328.13,170.61c-.43-2-2.77-1.17-3.15-3-.14-.63-.19-1.17.64-1.17a1.36,1.36,0,0,0,1.55-1.12.65.65,0,0,1,1-.22c2.31,1.89,4.36,1.45,6.47-.43.68-.61,1.58-.16,1.79.84a2.07,2.07,0,0,1-1.33,2.52C332.88,168.92,329.92,167.42,328.13,170.61Z"/><path class="cls-1" d="M166.05,334.22c-.87,2.1-2.28,2-3.61,1.8a3.47,3.47,0,0,1-3-2.73,6.47,6.47,0,0,1,.68-5.07,3.58,3.58,0,0,1,3.69-1.66,3.36,3.36,0,0,1,2.87,2.23c1,2.08.06,3.19-2.22,2.9a8.31,8.31,0,0,0-1.16-.25c-.92.05-2.34-.84-2.56.73s.89,2.52,2.49,2.53A17,17,0,0,0,166.05,334.22Zm-2.88-3.78c.75-.33,2.14.62,2.21-.92.06-1.37-1.15-1.87-2.28-1.85s-2.36.69-2.26,1.93S162.38,330.08,163.17,330.44Z"/><path class="cls-1" d="M254.6,314.51a4.25,4.25,0,0,1-4.08,3.84c-2.51,0-4.93-2.77-4.83-5.53a4.81,4.81,0,0,1,4.16-3.94C252.32,308.86,254.62,311.58,254.6,314.51Zm-1.35-.75a3.87,3.87,0,0,0-3.75-3.62,2.32,2.32,0,0,0-2.49,2.58c-.08,2,1.92,4.27,3.73,4.28S253.3,316,253.25,313.76Z"/><path class="cls-1" d="M265.59,300.62a2.94,2.94,0,0,0-1.16.18,1.7,1.7,0,0,0-1.13,2.1c.28.91,1.14.77,1.82.64a15.94,15.94,0,0,0,2.51-.72,2.11,2.11,0,0,1,2.67.95,2.36,2.36,0,0,1,0,2.88c-1.06,1.6-3.81,2.49-5,1.63-.35-.26-.63-.55-.41-1s.48-.31.83-.19a2.56,2.56,0,0,0,1.15.22,3.09,3.09,0,0,0,2.48-1.63,1,1,0,0,0-.21-1.31c-.85-.75-1.77-.47-2.69-.13a4,4,0,0,1-.45.16c-1.29.43-2.64,1-3.69-.37a2.4,2.4,0,0,1,.06-3.09,3.93,3.93,0,0,1,4-1.7c.65.11,1.36.41,1.15,1.21S266.54,300.69,265.59,300.62Z"/><path class="cls-1" d="M212.61,323.18a2.38,2.38,0,0,1,2.54,1.76c.54,1.9,1,3.84,1.43,5.76.1.4.12.82-.39,1s-.74-.17-.84-.6c-.35-1.46-.67-2.93-1-4.39s-.94-2.5-2.59-2.08a2.36,2.36,0,0,0-1.91,3c.31,1.47.73,2.92,1.07,4.38.11.48.06,1-.57,1.1s-.65-.34-.75-.74c-.58-2.39-1.16-4.77-1.71-7.17-.06-.25.14-.56.22-.85C209.88,325.05,210.94,323,212.61,323.18Z"/><path class="cls-1" d="M105.33,311.06c.07,2.46-2.52,5.38-4.79,5.4a3.79,3.79,0,0,1-4.06-3.78c-.1-2.38,2.51-5.62,4.57-5.65A4.43,4.43,0,0,1,105.33,311.06Zm-7.52,1.75c-.08,1.84,1,2.64,2.63,2.67s3.82-2.54,3.64-4.43a2.74,2.74,0,0,0-2.82-2.7C99.47,308.28,97.79,310.51,97.81,312.81Z"/><path class="cls-1" d="M258,314.54a50.42,50.42,0,0,1-4.33-6.75,3.36,3.36,0,0,1-.27-.84c1.64-.56,2.39-2.49,4.14-2.81a2.79,2.79,0,0,1,3,1.56c1,1.56,2,3.09,2.93,4.63.22.36.36.78-.05,1.05s-.77-.06-1-.39c-.92-1.39-1.84-2.79-2.68-4.22-.71-1.23-1.62-1.79-2.92-1a2.26,2.26,0,0,0-.87,3.29c.59,1.12,1.3,2.18,2,3.27C258.27,312.94,258.78,313.52,258,314.54Z"/><path class="cls-1" d="M157.18,332.44c-.55,2.34-2.37,3.22-4.43,2.28s-2.91-2.92-2.28-5.39c.73-2.84,2-3.88,4.39-3.77a3,3,0,0,1,2.44,1.27c.48.67,1.42,1.69.57,2.24-1.19.77-.89-.85-1.3-1.36-.94-1.15-2-1.6-3.3-.72s-1.93,5-.91,6.16c.88,1,2,.78,3.08.32C156,333.23,156.2,332.41,157.18,332.44Z"/><path class="cls-1" d="M224.85,321.18a9,9,0,0,0-3.46.81c-.39.11-.83.24-1-.27s.3-.66.65-.85a.77.77,0,0,1,.23-.06c1.76-.31,3.74-2.17,5.07-1.07,1.07.89-.66,3-1,4.55,0,.15-.09.3-.13.46-.23,1-1.26,2.08-.58,2.88s1.86-.27,2.83-.4c.66-.09,1.34-.55,2.15.44-2,.7-3.94,1.41-5.87,2-1.34.41-1.26-.38-1-1.31.73-2.35,1.43-4.7,2.15-7.06l.17-.28Z"/><path class="cls-1" d="M321.93,219.37c.78.24,1.34.53,1.2,1.35-.26,1.57.68,2.07,2,2.4s2.26.73,3.37,1.12c.56.2,1,.51.77,1.22s-.6,1-1.24.84c-2.35-.67-4.71-1.34-7-2.16-1-.35-.89-1.27-.28-2S320.26,219.66,321.93,219.37Z"/><path class="cls-1" d="M299.2,266.12c.11.22.35.48.3.64-1.13,3,1.11,4.11,3,5.48.6.44,1.86.87,1.1,2s-1.64.46-2.43-.17c-1.38-1.08-2.73-2.2-4.18-3.16-1.27-.85-1.4-1.61-.2-2.56.86-.68.71-2.47,2.43-2.19Z"/><path class="cls-1" d="M125.07,327.26c-1.85-1.88-1.35-3.59-.61-5.14a4.29,4.29,0,0,1,3.9-2.72,3.65,3.65,0,0,1,3.48,3.31c.18,2.18-.62,2.82-2.68,2.15l-1.36-.45C124.69,323.37,124.6,323.45,125.07,327.26Zm3.29-7c-.92.26-2.26.59-2.05,1.56.33,1.51,2.13,1.25,3.3,1.67.88.31,1-.54.92-1.19A2.07,2.07,0,0,0,128.36,320.3Z"/><path class="cls-1" d="M146.46,324.47a39,39,0,0,1-4.92,7.42c-.75.88-1.25-.09-1.36-.82-.37-2.36-.67-4.72-1-7.09-.05-.43-.14-1,.51-1.15s.74.44.8.93c.16,1.26.3,2.52.48,3.78.09.59-.28,1.48.47,1.68s1.12-.69,1.5-1.27c.65-1,1.25-2,1.92-3C145.15,324.56,145.46,324.14,146.46,324.47Z"/><path class="cls-1" d="M332.39,191.33c-1.35-.14-3-.33-4.67-.49-.63-.05-1.1-.24-1.05-1s.31-1.33,1.1-1.29c2.54.13,5.08.32,7.61.54.59,0,.68.58.66,1.09s-.23,1.11-.94,1.13S333.5,191.33,332.39,191.33Z"/><path class="cls-1" d="M328.64,163.48c-1.12,0-2,.17-2.06-1s.67-1.21,1.52-1.3q3.07-.33,6.13-.78c.87-.13,1.28.13,1.52,1,.3,1.09-.32,1.12-1.08,1.32C332.58,163.23,330.38,162.84,328.64,163.48Z"/><path class="cls-1" d="M94.58,303.19a3.19,3.19,0,0,0,2.56-1.29,2.06,2.06,0,0,1,2.61-.48c.53.28,1.45.45,1.14,1.24s-.94.1-1.42,0a1.85,1.85,0,0,0-2.1.73c-1,1.18,1,1.23.76,2.31-2.38-.75-2.95,1.21-3.93,2.69-.75,1.14-1.19,2.57-2.85,3.42C91.55,308.45,95.51,306.77,94.58,303.19Z"/><path class="cls-1" d="M243.7,321.6c-1.35,1.74-2.54,1.72-3.51.16-.74-1.2-1.15-2.6-1.82-3.86-.37-.69-.21-2.08-1.77-1.56-.42.14-.7-.31-.38-.76s.68-.67.6-1.22-.8-1.27.16-1.6c.75-.26.75.62,1.06,1,.58.74,1.35-.3,2,.2C238.3,316.54,240.29,321,243.7,321.6Z"/><path class="cls-1" d="M312.57,261.19c-.34.94-1,1.48-1.84,1-2.06-1.17-4-2.49-6-3.78-.4-.26-.75-.64-.44-1.19s.79-.9,1.37-.66c2.44,1,4.42,2.76,6.67,4.07C312.46,260.71,312.49,261,312.57,261.19Z"/><path class="cls-1" d="M189.57,327.74c-4.79.43-3.71,3.23-3.61,5.74,0,.95.82,2.7-.62,2.78-1.15.07-.51-1.69-.66-2.63a19.93,19.93,0,0,1-.37-3.52c0-1.19-.93-3.18,1.89-2.61C186.8,327.62,187.7,326.78,189.57,327.74Z"/><path class="cls-1" d="M132.62,330.26c-.64-.16-.62-.6-.48-1.1.63-2.21,1.24-4.42,1.89-6.62.26-.9.67-1.42,1.66-.62.32.26.9.19,1.36.27s1.53-.12,1.37.82-.9.13-1.38.19a2.49,2.49,0,0,0-2.38,2c-.36,1.38-.81,2.73-1.23,4.09C133.3,329.69,133.27,330.22,132.62,330.26Z"/><path class="cls-1" d="M105.2,319.23c-.93-.05-1-.43-.74-1l3.4-6.79c.26-.51.7-.79,1.11-.31.72.84,2.14.21,2.63,1.34a.43.43,0,0,1-.51.57c-3.35-.54-3.66,2.33-4.81,4.26C105.89,318,105.52,318.66,105.2,319.23Z"/><path class="cls-1" d="M273.1,289.36a53.15,53.15,0,0,1,9,10.56A51.06,51.06,0,0,1,273.1,289.36Z"/><path class="cls-1" d="M149.12,326.19c-.45,2.17-.89,4.34-1.34,6.51-.1.46-.2,1-.86.86s-.56-.7-.47-1.17c.43-2.17.88-4.34,1.32-6.52.11-.52,0-1.27.87-1.09S149.08,325.67,149.12,326.19Z"/><path class="cls-1" d="M217.94,321.93c.16.19.45.39.52.65.69,2.43,1.35,4.87,2,7.31a.59.59,0,0,1-.37.76c-.47.18-.76-.07-.88-.51-.66-2.36-1.32-4.71-1.93-7.08C217.17,322.63,217.16,322.08,217.94,321.93Z"/><path class="cls-1" d="M246.49,319.94c-.14.29-.18.57-.34.68a.57.57,0,0,1-.84-.14q-1.74-3.54-3.4-7.1a.65.65,0,0,1,.19-.6.56.56,0,0,1,.83.15C244.14,315.27,245.31,317.61,246.49,319.94Z"/><path class="cls-1" d="M325.51,162.53c0,.8-.51,1.07-1.24,1s-1-.36-1-1a1.11,1.11,0,0,1,1.12-1.24C325.11,161.29,325.46,161.82,325.51,162.53Z"/><path class="cls-1" d="M324.71,188.19c.66.21,1.18.61,1.11,1.35a1.17,1.17,0,0,1-1.12,1.07c-.82,0-1.06-.6-1-1.31A1.07,1.07,0,0,1,324.71,188.19Z"/><path class="cls-1" d="M125.26,327.54c1.4.07,2.52.83,3.67.16a.52.52,0,0,1,.72.41c.09.41-.25.58-.53.64A3.62,3.62,0,0,1,125.26,327.54Z"/><path class="cls-1" d="M301.61,255.69c.05-.64.34-1.05,1-1s.94.5.88,1.12-.3,1.13-1,1.07S301.63,256.3,301.61,255.69Z"/><path class="cls-1" d="M200.93,216.68c.24,5,0,10-1.92,14.8-3.19,8-9.85,12.29-18.45,12.71-11.89.57-20-8.36-21.3-18.95-.86-6.9-1.11-13.86.58-20.65,4.21-16.9,21.84-19.92,32.37-12.26,4.84,3.52,7.09,8.64,8.25,14.35C201.14,210,200.89,213.35,200.93,216.68Zm-4.71.36c0-4.44.17-8.4-1-12.33-2.06-7.05-7.49-11.71-14.75-11.83-6.85-.13-12.51,3.35-15.27,10.83a25.29,25.29,0,0,0-1.43,7.23c-.39,5.9-.72,11.82,1.2,17.53,3.05,9.11,9,11.67,15.39,11.63,8.36,0,13.3-5.55,15.07-12.58C196.38,223.88,196.09,220.23,196.22,217Z"/><path class="cls-1" d="M133.66,244.1c-5.84.2-11-.93-15.33-4.5a13.44,13.44,0,0,1-5.13-9.9c-.06-1.06,0-2,1.46-1.83,1.19.17,3.14-.83,3.25,1.33.35,6.58,6.42,10.45,13.31,11,5.05.4,9.92-.26,13.76-4.09A9,9,0,0,0,144,223c-3.42-2.48-7.44-3.6-11.4-4.82-4.88-1.5-9.86-2.81-13.67-6.53a12.52,12.52,0,0,1,1.17-19.07c7.74-5.83,21.79-5.67,28.5,2.7a12.64,12.64,0,0,1,3.07,8.1c0,1.1-.15,2-1.52,1.79-1.18-.18-3,.82-3.23-1.37-.54-5.42-3.49-8.84-8.61-10.27-5.73-1.6-11.32-1.24-16,2.92-4.13,3.7-3.5,9.75,1,13,4.13,3,9.07,3.81,13.73,5.39,4.08,1.38,8.13,2.75,11.28,6a13,13,0,0,1-3,20.62A20.87,20.87,0,0,1,133.66,244.1Z"/><path class="cls-1" d="M84.52,155.83c-2.25.43-2.7-.32-1.9-2.4q9.52-24.88,18.91-49.82c.59-1.57,1.52-1.87,3.06-1.93s2.36.57,2.92,2q8.14,21.69,16.4,43.35c.93,2.46,1.83,4.93,2.79,7.38.4,1,.24,1.37-.94,1.45-2.32.18-4,0-4.71-2.88-.91-3.53-2.56-6.86-3.74-10.33a2.31,2.31,0,0,0-2.64-1.77q-10.17.09-20.35,0a2.4,2.4,0,0,0-2.76,1.92c-1.19,3.63-2.66,7.17-3.86,10.8C87.15,155.34,86.39,156.34,84.52,155.83Zm20.32-47.17-.62,0c-3.24,8.8-6.46,17.6-9.74,26.38-.58,1.53,0,1.72,1.35,1.71,5.82,0,11.63-.08,17.45,0,1.9,0,1.63-.76,1.19-2q-3.07-8.28-6.11-16.56Z"/><path class="cls-1" d="M237.35,155.62c1.61-4.28,3.2-8.51,4.8-12.73q7.28-19.21,14.56-38.43c.58-1.53,1-3.08,3.38-2.81a3,3,0,0,1,2.94,2.13c6.21,16.46,12.47,32.91,18.65,49.4.28.75,1.58,1.84.08,2.62s-4.13-.1-4.64-1.43c-1.48-4-3-7.9-4.39-11.88a2,2,0,0,0-2.25-1.56q-10.43.09-20.84,0a2.4,2.4,0,0,0-2.6,1.9c-1.12,3.15-2.3,6.28-3.43,9.43C242.15,156.32,242.15,156.32,237.35,155.62Zm12-18.91c6.66,0,12.94-.06,19.21,0,1.79,0,2-.52,1.41-2.05-2.15-5.65-4.21-11.34-6.3-17-1.12-3-2.22-6.06-3.33-9.09l-.55,0Z"/><path class="cls-1" d="M202,128.81q0-12.45,0-24.91c0-1.16-.13-2.24,1.64-2.17,7.24.24,14.51-.4,21.75.46s13,7.09,13.47,14c.62,10.24-4.49,15.69-12.25,17.13-5.61,1-11.3.46-17,.47-2.33,0-3,.71-2.94,3,.14,5.66,0,11.33.09,17,.05,2-.92,2.09-2.46,2.13s-2.42-.3-2.39-2.21C202,145.41,202,137.11,202,128.81ZM206.74,118c0,3.44,0,6.87,0,10.31,0,1,.09,1.75,1.38,1.7,5.49-.21,11,.49,16.48-.49s9.25-5.14,9.44-10.46c.24-6.5-2.95-11.3-8.74-12.55s-11.61-.31-17.43-.51c-1.19,0-1.12.89-1.12,1.7C206.73,111.12,206.74,114.56,206.74,118Z"/><path class="cls-1" d="M209.6,217.41c.13-7.74.43-14.6,4.66-20.5a17.92,17.92,0,0,1,14.76-8c4.1-.11,8.13,0,11.87,2,5.76,3.16,8.41,8.23,9.11,14.55.06.51.14.87-.48,1.12a3.3,3.3,0,0,1-4.53-2.35c-1.6-7.08-6-10.92-13.12-11.47s-13,3.29-15.59,10.17c-2.37,6.38-2.06,13-1.67,19.61a26.3,26.3,0,0,0,1.67,7.91c4.5,11.73,17.52,11.84,24.19,6.7,2.55-2,3.6-5,4.27-8.09.42-1.88,2.92-3.26,4.6-2.48,1.07.5.58,1.61.44,2.35-1.22,6.65-4.55,11.87-11.17,14-15.13,5-27-3.27-28.54-19.3C209.84,221.34,209.36,219,209.6,217.41Z"/><path class="cls-1" d="M156.41,129c-.23,5.64.16,11.06,2.89,16.1,4.74,8.75,17.63,10.37,24.31,3,1.74-1.91,2.39-4.28,3-6.68a3.28,3.28,0,0,1,4.61-2.31c.91.44.61,1.23.55,1.88a17.81,17.81,0,0,1-14.69,15.28c-6.21,1-12,.35-17.19-3.68-4.74-3.69-6.83-8.84-7.69-14.41a58.67,58.67,0,0,1,.32-20.68c1.94-9.53,9.93-16.65,19.75-16.42,6.24.15,11.63,1.55,15.69,6.55a18.81,18.81,0,0,1,3.78,8.92c.15.86.68,2.42-1.07,2.28-1.29-.11-3.26,1.23-3.7-1.54-.6-3.69-1.93-7.13-5.16-9.39-7.48-5.24-20.87-4.13-24.48,9.79A37.26,37.26,0,0,0,156.41,129Z"/><ellipse class="cls-1" cx="180.81" cy="173.36" rx="145.98" ry="0.47"/><path class="cls-1" d="M140,128.8c0,8.3-.08,16.6.05,24.89,0,2.19-1,2.22-2.61,2.23s-2.61-.11-2.59-2.25q.13-24.78,0-49.55c0-2.22,1-2.36,2.79-2.43,1.94-.08,2.42.58,2.4,2.45C140,112.36,140,120.58,140,128.8Z"/><path class="cls-1" d="M179.32,271.65c-3,.88-4.86.38-6-1.55s-.75-6.44.85-7.89a2.92,2.92,0,0,1,2.17-.86,10.07,10.07,0,0,0,2.36.17c3.6-.73,3.11,1.65,3,3.82s0,4.31,0,6.47a4.17,4.17,0,0,1-2.81,4.06,5.15,5.15,0,0,1-5-.81c-.41-.27-.79-.63-.43-1.18.56-.84,1.19-.38,1.87-.1C178,274.86,179,274.35,179.32,271.65Zm.11-5.17c.16-1.54.2-3.37-2.31-3.54-1.53-.11-2.59,1.55-2.55,3.93,0,1.78.44,3.53,2.64,3.55C179.69,270.43,179.46,268.47,179.43,266.48Z"/><path class="cls-1" d="M130.52,268.6c0-1.84,0-3.67,0-5.51,0-1.2.21-2.33,1.71-1.38.83.53,1.15-.13,1.69-.26a4.42,4.42,0,0,1,5.63,4,8.54,8.54,0,0,1-.43,4.24c-.45,1.09-1.14,2.15-2.27,2.28-2.31.28-4.86,0-4.33,3.63.06.4-.68.58-1.19.52-.75-.1-.8-.67-.8-1.25Zm1.92-2.31c0,3.48.94,4.68,3.11,4.12,1.54-.39,2.47-2.46,2.1-4.78-.24-1.58-1.1-2.83-2.75-2.71C132.85,263.08,132.15,264.55,132.44,266.29Z"/><path class="cls-1" d="M149.56,268.48a17.92,17.92,0,0,0,0,1.81c.17,1.73-.26,2.59-2.08,1.51-.71-.43-1.19.13-1.77.29-2.3.64-4.45-.4-5-2.44-.46-1.82.83-3.42,3.19-4a13.36,13.36,0,0,0,1.39-.33c.61-.22,1.61.35,1.75-.72a1.74,1.74,0,0,0-.63-1.22,1.76,1.76,0,0,0-2.2-.35,3.93,3.93,0,0,0-1.11.86c-.52.66-1.21,1.06-1.8.44s.19-1.27.61-1.79c1.33-1.64,3.16-1.39,4.86-1.08s2.25,1.5,2.54,3.09A38.78,38.78,0,0,1,149.56,268.48Zm-4.18-1.35c-.89.17-2.33.17-2.39,1.92,0,1.11.8,1.43,1.78,1.42,1.44,0,2.45-.53,2.51-2.17C147.33,267.14,146.59,267.05,145.38,267.13Z"/><path class="cls-1" d="M227.88,258c1.07-.08,1.25.55,1.25,1.37,0,1.83,0,3.66,0,5.49,0,1-.3,2.07,1.27,2.35a.73.73,0,0,1,.14,1.41c-1.4.46-1.45,1.44-1.48,2.58a1,1,0,0,1-1.09,1.05c-.68,0-1.14-.31-1-1,.36-2.5-1.24-2.36-2.93-2.37-1.06,0-2.48.6-3.14-.4-.81-1.23.64-2.15,1.19-3.11,1.22-2.14,2.64-4.15,4-6.21C226.49,258.51,227,257.87,227.88,258Zm-.63,3.36-.54-.21-3.64,5.72c4.18.54,4.18.54,4.18-3.17Z"/><path class="cls-1" d="M114.61,268.32c0,.64,0,1.28,0,1.91.12,1.58-.1,2.72-2,1.58-.82-.48-1.33.2-2,.36-1.88.46-4-.59-4.49-2.2-.6-2.15.33-3.66,2.65-4.27.62-.16,1.25-.25,1.86-.39s1.67.26,1.47-.94a1.7,1.7,0,0,0-1.89-1.47,3,3,0,0,0-2.17,1.3,1.09,1.09,0,0,1-1.69.13c-.49-.51.06-1,.37-1.45,1.33-1.9,3.31-1.73,5.19-1.45s2.38,1.78,2.6,3.32a25,25,0,0,1,0,3.57Zm-3.84-1.24c-1,.12-2.5.11-2.69,1.7-.14,1.18.91,1.74,2.09,1.68a2.33,2.33,0,0,0,2.51-2.28C112.77,267,111.81,267.12,110.77,267.08Z"/><path class="cls-1" d="M236,261.35a3.35,3.35,0,0,1,3.58,1.62c.26.43.82,1,.25,1.48a1.33,1.33,0,0,1-1.76-.13c-.41-.36-.67-.92-1.11-1.22a1.54,1.54,0,0,0-2.29.49c-.63,1,.09,1.64,1,2a24.71,24.71,0,0,1,2.74.8,2.6,2.6,0,0,1,1.77,2.59,2.93,2.93,0,0,1-1.76,2.64,5,5,0,0,1-6.07-1.12c-.38-.48-1-1.07-.37-1.64a1.22,1.22,0,0,1,1.89.2,3,3,0,0,0,2.36,1.41,1.29,1.29,0,0,0,1.53-.86A1.17,1.17,0,0,0,237,268c-.66-.26-1.38-.37-2-.62-1.63-.64-3.18-1.46-2.8-3.59S234,261.22,236,261.35Z"/><path class="cls-1" d="M195,261.35a3.86,3.86,0,0,1,3.78,1.55c.33.47.51,1.09,0,1.52a1.05,1.05,0,0,1-1.49-.16,7.52,7.52,0,0,0-1.21-1.12,1.56,1.56,0,0,0-2.44.6c-.61,1.22.55,1.54,1.32,1.76a11.13,11.13,0,0,1,3.12,1.14,2.72,2.72,0,0,1,.21,4.61,5.09,5.09,0,0,1-6.68-.85c-.39-.49-1-1.09-.3-1.63a1.17,1.17,0,0,1,1.85.31,2.3,2.3,0,0,0,1.6,1.29,1.73,1.73,0,0,0,2.2-1c.44-1.11-.6-1.32-1.28-1.63-.49-.22-1.09-.21-1.61-.41-1.51-.59-3.25-1.24-2.9-3.23A3.25,3.25,0,0,1,195,261.35Z"/><path class="cls-1" d="M165.44,266.66c0,3.09-2.32,5.67-5,5.62s-4.93-2.69-4.88-5.53c0-3.11,2.53-5.83,5.24-5.76S165.46,263.56,165.44,266.66Zm-7.67.26c-.05,1.86.51,3.33,2.62,3.52,1.73.16,3.2-1.79,3.14-4s-1.28-3.64-2.94-3.68S157.76,264.24,157.77,266.92Z"/><path class="cls-1" d="M210.06,266.66c0,3.24-2.05,5.54-4.93,5.58-2.56,0-4.66-2.49-4.66-5.58,0-3.49,1.72-5.35,4.94-5.35C208.41,261.31,210.07,263.21,210.06,266.66Zm-1.9-.18c0-2.29-1.13-3.74-2.81-3.7s-3,1.73-3,4.18c.05,2.25,1.18,3.58,3,3.51S208.2,269,208.16,266.48Z"/><path class="cls-1" d="M250.8,266.6c0,3.27-2,5.55-4.87,5.64-2.55.08-4.71-2.44-4.72-5.52,0-3.51,1.69-5.4,4.89-5.41C249.13,261.29,250.8,263.18,250.8,266.6Zm-1.89-.36c-.09-1.41-.35-3.2-2.64-3.44-1.83-.2-3.11,1.52-3.13,4,0,2.27,1,3.66,2.81,3.69S248.89,269.11,248.91,266.24Z"/><path class="cls-1" d="M120.42,267.9c0-5.16,3-7.57,6.49-6.32a3.16,3.16,0,0,1,1.88,1.39c.33.65,1.18,1.44.21,2.06a1.23,1.23,0,0,1-1.89-.79c-.41-1.14-1.43-1.14-2.4-1.05a2.11,2.11,0,0,0-1.95,1.8,6,6,0,0,0-.1,3.27c.75,2.44,2.59,3.05,4.41,1.25.68-.68,1.39-1.44,2.14-.62s-.29,1.42-.81,2a4.35,4.35,0,0,1-5,1.19A4.41,4.41,0,0,1,120.42,267.9Z"/><path class="cls-1" d="M213.35,266.93a3,3,0,0,0,1.52,3.28c1.46.75,2.58.13,3.42-1.2a1,1,0,0,1,1.48-.25c.62.45.19,1-.07,1.48a4,4,0,0,1-4.47,2.06c-2.58-.34-4.44-3.14-4.14-6.11s2.55-5.09,5.42-4.84a4.29,4.29,0,0,1,3.2,1.87c.38.53.69,1.23.08,1.72a1,1,0,0,1-1.61-.38,2.5,2.5,0,0,0-3.47-1.17C213.34,264,213.34,265.41,213.35,266.93Z"/><path class="cls-1" d="M183.37,273.26c-1,.06-.8-.55-.6-1.08q2.58-6.78,5.22-13.54c.25-.64.71-1.2,1.44-.88.91.41.24,1.11,0,1.63-1.59,4.22-3.23,8.44-4.83,12.66C184.4,272.67,184.16,273.24,183.37,273.26Z"/><path class="cls-1" d="M166.91,266.78v-1.67c0-3.82,0-3.82,3.78-3.76.65,0,1.34-.05,1.39.89,0,.73-.4,1-1.05,1-2,.06-2.29,1.34-2.24,3,.05,1.35,0,2.71,0,4.06,0,.78.17,1.8-1,1.88-1.33.09-.88-1.06-.92-1.75C166.87,269.18,166.91,268,166.91,266.78Z"/><path class="cls-1" d="M116.62,266.55c0-1.35,0-2.71,0-4.06,0-.63.22-1.09,1-1.07s.92.5.92,1.12c0,2.71,0,5.42,0,8.13,0,.59-.09,1.14-.85,1.18s-1-.52-1-1.23Z"/><path class="cls-1" d="M117.74,257.61c.7.14,1.17.49,1.12,1.12a1,1,0,0,1-1.29,1,1,1,0,0,1-.9-1.18C116.75,257.93,117.25,257.71,117.74,257.61Z"/><path class="cls-1" d="M152.69,270c.59.07,1.08.32,1.06,1s-.52.9-1.11.91-1-.27-1-1S152.07,270,152.69,270Z"/></g></g></svg>